<svg width="120" height="120" viewBox="0 0 120 120" fill="none" xmlns="http://www.w3.org/2000/svg">
<path d="M87.6213 93.0701C95.541 93.0701 101.961 86.6499 101.961 78.7301C101.961 70.8104 95.541 64.3901 87.6213 64.3901C79.7015 64.3901 73.2812 70.8104 73.2812 78.7301C73.2812 86.6499 79.7015 93.0701 87.6213 93.0701Z" fill="#FF6B00"/>
<path d="M94.4 64.88V58.12C95.61 57.57 96.45 56.48 96.45 55.22V36.46C96.45 34.64 94.73 33.16 92.61 33.16H75.97V30.02C75.97 27.25 73.72 25 70.95 25H41.51C38.74 25 36.49 27.25 36.49 30.02V33.16H19.84C17.72 33.16 16 34.64 16 36.46V55.22C16 56.48 16.84 57.57 18.05 58.12V84.5C18.05 86.68 19.82 88.45 22 88.45H75.65C78.48 91.93 82.79 94.16 87.62 94.16C96.13 94.16 103.05 87.24 103.05 78.73C103.05 72.65 99.51 67.4 94.4 64.89V64.88ZM79.32 88.46C78.85 88.05 78.4 87.61 77.99 87.14C77.62 86.72 77.28 86.29 76.97 85.82C75.61 83.79 74.82 81.35 74.82 78.73C74.82 71.67 80.56 65.93 87.62 65.93C89.07 65.93 90.46 66.18 91.77 66.63C92.22 66.79 92.66 66.97 93.09 67.17C93.54 67.39 93.98 67.63 94.41 67.89C98.02 70.16 100.43 74.16 100.43 78.73C100.43 85.79 94.69 91.53 87.63 91.53C84.46 91.53 81.57 90.37 79.33 88.46H79.32ZM20.68 84.51V58.72L45.29 63.73C45.26 63.95 45.22 64.16 45.22 64.39C45.22 67.09 47.42 69.28 50.11 69.28H62.95C65.65 69.28 67.84 67.08 67.84 64.39C67.84 64.12 67.8 63.86 67.76 63.61L91.76 58.73V63.89C90.44 63.52 89.05 63.31 87.61 63.31C79.1 63.31 72.18 70.23 72.18 78.74C72.18 81.3 72.82 83.71 73.92 85.83H22C21.27 85.83 20.68 85.24 20.68 84.51ZM19.84 35.8H92.62C92.62 35.8 92.69 35.81 92.73 35.82C93.39 35.86 93.82 36.22 93.82 36.47V55.23C93.82 55.43 93.54 55.71 93.08 55.83C92.94 55.87 92.78 55.89 92.61 55.89L91.76 56.06L66.6 61.16C65.7 60.15 64.41 59.49 62.95 59.49H50.11C48.6 59.49 47.27 60.19 46.37 61.26L20.66 56.03L20.08 55.91L19.82 55.88C19.65 55.88 19.49 55.85 19.35 55.82C18.9 55.7 18.61 55.42 18.61 55.22V36.46C18.61 36.21 19.05 35.85 19.7 35.81C19.74 35.81 19.77 35.79 19.81 35.79L19.84 35.8ZM39.11 30.02C39.11 28.7 40.18 27.63 41.5 27.63H70.94C72.26 27.63 73.33 28.7 73.33 30.02V33.16H72.38V30.53C72.38 29.51 71.55 28.69 70.54 28.69H41.89C40.87 28.69 40.05 29.52 40.05 30.53V33.16H39.1V30.02H39.11ZM69.76 33.17H42.69V31.33H69.76V33.17ZM65.22 64.39C65.22 65.64 64.21 66.65 62.96 66.65H50.12C48.87 66.65 47.86 65.64 47.86 64.39C47.86 64.34 47.87 64.3 47.87 64.26C47.9 63.79 48.07 63.36 48.34 63.01C48.75 62.48 49.39 62.13 50.12 62.13H62.96C63.63 62.13 64.23 62.43 64.65 62.9C64.95 63.24 65.14 63.66 65.2 64.13C65.21 64.22 65.23 64.3 65.23 64.39H65.22Z" fill="#002169"/>
<path d="M98.2108 78.7299C98.2108 77.9999 97.6208 77.4099 96.8908 77.4099H88.9408V69.7199C88.9408 68.9899 88.3508 68.3999 87.6208 68.3999C86.8908 68.3999 86.3008 68.9899 86.3008 69.7199V78.7299C86.3008 79.4599 86.8908 80.0499 87.6208 80.0499H96.8908C97.6208 80.0499 98.2108 79.4599 98.2108 78.7299Z" fill="#002169"/>
</svg>
