<svg width="120" height="120" viewBox="0 0 120 120" fill="none" xmlns="http://www.w3.org/2000/svg">
<path d="M58.5619 72.0075C68.3042 72.0075 76.2019 64.1098 76.2019 54.3675C76.2019 44.6252 68.3042 36.7275 58.5619 36.7275C48.8196 36.7275 40.9219 44.6252 40.9219 54.3675C40.9219 64.1098 48.8196 72.0075 58.5619 72.0075Z" fill="#FF6B00"/>
<path d="M99.6219 83.0575L86.5119 64.3375C86.7019 64.0575 86.9119 63.7975 87.1619 63.5475L90.5419 60.1675C93.8319 56.8775 93.8319 51.5275 90.5419 48.2375L87.1619 44.8575C86.0619 43.7575 85.4619 42.3075 85.4619 40.7575V35.9775C85.4619 31.3275 81.6819 27.5475 77.0219 27.5475H72.2419C70.6919 27.5475 69.2319 26.9475 68.1419 25.8475L64.7619 22.4675C61.4719 19.1775 56.1219 19.1775 52.8319 22.4675L49.4519 25.8475C48.3519 26.9475 46.9019 27.5475 45.3519 27.5475H40.5719C35.9219 27.5475 32.1319 31.3275 32.1319 35.9775V40.7575C32.1319 42.3075 31.5319 43.7675 30.4319 44.8575L27.0519 48.2375C23.7619 51.5275 23.7619 56.8775 27.0519 60.1675L30.4319 63.5475C31.3119 64.4275 31.8619 65.5475 32.0419 66.7575L20.6519 83.0575C19.9819 84.0175 19.8219 85.1975 20.2019 86.2975C20.5819 87.3975 21.4419 88.2275 22.5619 88.5675L30.9819 91.1175C31.1719 91.1775 31.3419 91.2875 31.4719 91.4475L37.1819 98.8675C37.8719 99.7575 38.9019 100.268 40.0319 100.268C40.0619 100.268 40.0919 100.268 40.1119 100.268C41.2719 100.238 42.3119 99.6875 42.9819 98.7375L52.3119 85.4075L52.8519 85.9475C54.4919 87.5875 56.6519 88.4175 58.8119 88.4175C60.9719 88.4175 63.1319 87.5975 64.7719 85.9475L66.8719 83.8475L77.3019 98.7475C77.9619 99.6975 79.0119 100.257 80.1719 100.277C80.2019 100.277 80.2319 100.277 80.2519 100.277C81.3719 100.277 82.4119 99.7675 83.1019 98.8775L88.8219 91.4575C88.9419 91.2975 89.1119 91.1775 89.3019 91.1275L97.7219 88.5775C98.8419 88.2375 99.7019 87.4175 100.082 86.3075C100.462 85.2075 100.302 84.0275 99.6319 83.0675L99.6219 83.0575ZM97.5919 85.4375C97.4919 85.7375 97.2619 85.9575 96.9619 86.0475L88.5419 88.5975C87.8219 88.8175 87.1919 89.2475 86.7319 89.8475L81.0219 97.2675C80.8319 97.5175 80.5719 97.6575 80.2319 97.6475C79.9219 97.6475 79.6419 97.4875 79.4619 97.2375L68.8119 82.0275C69.8019 81.2875 70.9919 80.8775 72.2519 80.8775H77.0319C81.6819 80.8775 85.4719 77.0975 85.4719 72.4375V67.6575C85.4719 67.5875 85.4919 67.5275 85.4919 67.4575L97.4819 84.5775C97.6619 84.8375 97.7019 85.1475 97.6019 85.4475L97.5919 85.4375ZM54.7019 84.0875L53.8419 83.2275L52.8919 82.2775L51.9419 81.3275L51.3219 80.7075C49.7319 79.1175 47.6119 78.2375 45.3619 78.2375H40.5819C37.3819 78.2375 34.7819 75.6375 34.7819 72.4375V67.6575C34.7819 67.5975 34.7819 67.5475 34.7819 67.4875C34.7719 66.8275 34.6819 66.1875 34.5219 65.5675C34.3919 65.0475 34.2019 64.5375 33.9719 64.0475C33.5619 63.1875 33.0119 62.3875 32.3219 61.6875L28.9419 58.3075C26.6819 56.0475 26.6819 52.3675 28.9419 50.0975L32.3219 46.7175C33.9119 45.1275 34.7919 43.0075 34.7919 40.7575V35.9775C34.7919 32.7775 37.3919 30.1775 40.5919 30.1775H45.3719C47.6219 30.1775 49.7419 29.2975 51.3319 27.7075L54.7119 24.3275C56.9719 22.0675 60.6519 22.0675 62.9219 24.3275L66.3019 27.7075C67.8919 29.2975 70.0119 30.1775 72.2619 30.1775H77.0419C80.2419 30.1775 82.8419 32.7775 82.8419 35.9775V40.7575C82.8419 43.0075 83.7219 45.1275 85.3119 46.7175L88.6919 50.0975C90.9519 52.3575 90.9519 56.0375 88.6919 58.3075L85.3119 61.6875C85.1819 61.8175 85.0719 61.9475 84.9519 62.0875C84.6419 62.4375 84.3619 62.8075 84.1219 63.1975C83.8619 63.6175 83.6319 64.0675 83.4419 64.5275C83.0519 65.5075 82.8419 66.5675 82.8419 67.6575V72.4375C82.8419 75.6375 80.2419 78.2375 77.0419 78.2375H72.2619C70.4519 78.2375 68.7419 78.8075 67.3019 79.8575C66.9519 80.1175 66.6119 80.3975 66.2919 80.7075L65.3419 81.6575L62.9119 84.0875C60.6519 86.3475 56.9719 86.3475 54.7019 84.0875ZM39.2519 97.2675L33.5419 89.8475C33.0819 89.2475 32.4519 88.8175 31.7319 88.5975L23.3119 86.0475C23.0119 85.9575 22.7819 85.7375 22.6819 85.4375C22.5819 85.1375 22.6219 84.8275 22.8019 84.5675L32.1419 71.2275V72.4275C32.1419 77.0775 35.9219 80.8675 40.5819 80.8675H45.3619C46.9119 80.8675 48.3719 81.4675 49.4619 82.5675L50.4119 83.5175L40.8119 97.2275C40.6319 97.4775 40.3519 97.6275 40.0419 97.6375C39.7219 97.6375 39.4419 97.5075 39.2519 97.2575V97.2675Z" fill="#002169"/>
<path d="M78.0803 56.8875C78.1703 56.2175 78.2303 55.5275 78.2503 54.8375C78.2503 54.6275 78.2803 54.4175 78.2803 54.2075C78.2803 53.6175 78.2403 53.0375 78.1903 52.4575C77.3003 42.5275 68.9503 34.7275 58.8003 34.7275C48.0603 34.7275 39.3203 43.4675 39.3203 54.2075C39.3203 54.8975 39.3603 55.5675 39.4303 56.2375C39.5003 56.8775 39.5903 57.5075 39.7203 58.1175C39.8403 58.6875 39.9903 59.2475 40.1503 59.7975C42.4303 67.3775 49.1903 73.0075 57.3503 73.6175C57.8303 73.6575 58.3203 73.6875 58.8103 73.6875C58.8403 73.6875 58.8803 73.6875 58.9103 73.6875C59.1903 73.6875 59.4603 73.6575 59.7403 73.6475C60.0203 73.6375 60.3003 73.6275 60.5803 73.6075C60.8103 73.5875 61.0303 73.5575 61.2603 73.5275C61.7503 73.4675 62.2403 73.3975 62.7103 73.3075C70.7303 71.6675 76.9503 65.0875 78.0903 56.8875H78.0803ZM41.9803 54.8775C41.9803 54.6575 41.9503 54.4375 41.9503 54.2075C41.9503 53.6375 41.9803 53.0675 42.0403 52.5075C42.8903 44.0075 50.0903 37.3575 58.8003 37.3575C65.3203 37.3575 70.9703 41.0775 73.7703 46.5075C74.4203 47.7675 74.9103 49.1075 75.2303 50.5275C75.4403 51.4475 75.5603 52.3975 75.6103 53.3575C75.6203 53.6375 75.6503 53.9275 75.6503 54.2075C75.6503 58.4975 74.0303 62.3975 71.3803 65.3775C70.9303 63.9175 69.9503 62.5875 68.5903 61.4875C68.1903 61.1675 67.7603 60.8675 67.3003 60.5875C66.4003 60.0475 65.4003 59.5875 64.3103 59.2275C63.8603 59.0775 63.4003 58.9475 62.9303 58.8375C63.0503 58.7275 63.1703 58.6175 63.2803 58.5075C63.5903 58.1975 63.8703 57.8575 64.1203 57.4875C64.3703 57.1275 64.5803 56.7375 64.7603 56.3275C65.1703 55.3875 65.4103 54.3375 65.4103 53.2275C65.4103 53.0275 65.4003 52.8275 65.3803 52.6275C65.3403 52.1375 65.2603 51.6575 65.1403 51.1875C65.0203 50.7375 64.8603 50.3175 64.6703 49.9075C63.5703 47.6075 61.3603 46.0275 58.8003 46.0275C56.7703 46.0275 54.9503 47.0275 53.7303 48.5975C53.4603 48.9475 53.2303 49.3175 53.0303 49.7075C52.8303 50.1075 52.6603 50.5275 52.5203 50.9575C52.3103 51.6675 52.1803 52.4175 52.1803 53.2075C52.1803 54.8875 52.7103 56.4175 53.5903 57.6475C53.8503 58.0075 54.1403 58.3475 54.4603 58.6475C54.5303 58.7075 54.5903 58.7675 54.6603 58.8275C54.4203 58.8875 54.1803 58.9375 53.9503 59.0075C53.2003 59.2175 52.4803 59.4775 51.8103 59.7775C48.9903 61.0375 46.9303 63.0275 46.2103 65.3575C44.1303 63.0175 42.7003 60.0975 42.1803 56.8675C42.0703 56.2075 42.0103 55.5375 41.9803 54.8575V54.8775Z" fill="#002169"/>
</svg>
