<svg width="120" height="120" viewBox="0 0 120 120" fill="none" xmlns="http://www.w3.org/2000/svg">
<path d="M59.5192 60.59C71.0178 60.59 80.3392 51.2685 80.3392 39.77C80.3392 28.2714 71.0178 18.95 59.5192 18.95C48.0206 18.95 38.6992 28.2714 38.6992 39.77C38.6992 51.2685 48.0206 60.59 59.5192 60.59Z" fill="#FF6B00"/>
<path d="M54.0819 89.1001V81.9101C54.0819 78.5501 51.0619 73.4001 46.0219 70.5901C43.5219 69.1901 41.6319 67.8301 40.0919 66.3101L33.7919 60.0801C32.2519 58.5601 30.0419 58.1001 28.1019 58.7101L28.3919 43.8601C28.4219 42.2601 27.8219 40.7501 26.7019 39.6101C25.5819 38.4701 24.0819 37.8401 22.4819 37.8401C19.4319 37.8401 16.8519 40.2201 16.6019 43.2501L15.0419 61.9401C14.7419 65.5801 16.0619 69.1201 18.6719 71.6701C24.8019 77.6501 28.9119 81.8001 30.2519 83.3501C32.3419 85.7601 32.3219 86.5301 32.2819 89.0501C32.2819 89.0801 32.2819 89.1101 32.2819 89.1301C30.2019 89.5101 28.6219 91.3301 28.6219 93.5101V98.7401C28.6219 101.2 30.6219 103.2 33.0819 103.2H53.6319C56.0919 103.2 58.0919 101.2 58.0919 98.7401V93.5101C58.0919 91.2001 56.3219 89.3101 54.0719 89.0901L54.0819 89.1001ZM55.4719 98.7501C55.4719 99.7601 54.6519 100.58 53.6419 100.58H33.0919C32.0819 100.58 31.2619 99.7601 31.2619 98.7501V93.5201C31.2619 92.5101 32.0819 91.6901 33.0919 91.6901H53.6419C54.6519 91.6901 55.4719 92.5101 55.4719 93.5201V98.7501ZM17.6719 62.1601L19.2319 43.4701C19.3719 41.7901 20.8019 40.4701 22.4919 40.4701C23.3819 40.4701 24.2119 40.8201 24.8319 41.4501C25.4519 42.0801 25.7819 42.9201 25.7719 43.8101L25.4419 60.5201C24.6119 61.5301 24.1619 62.7901 24.1619 64.1101C24.1619 65.6201 24.7519 67.0401 25.8219 68.1101L34.8619 77.1501C35.3719 77.6601 36.2119 77.6601 36.7219 77.1501C37.2319 76.6401 37.2319 75.8001 36.7219 75.2901L33.0519 71.6201L27.6819 66.2501C27.1119 65.6801 26.7919 64.9201 26.7919 64.1101C26.7919 63.4201 27.0319 62.7701 27.4619 62.2301C27.5319 62.1401 27.6019 62.0501 27.6819 61.9601C28.8519 60.7801 30.7719 60.7801 31.9519 61.9501L38.2519 68.1801C39.9619 69.8801 42.0319 71.3701 44.7519 72.8901C48.7119 75.0901 51.4619 79.4201 51.4619 81.9101V89.0601H34.9319C34.9819 86.1101 34.8819 84.6701 32.2619 81.6401C30.4819 79.5801 24.9019 74.0601 20.5219 69.7901C18.4819 67.8001 17.4419 65.0201 17.6819 62.1701L17.6719 62.1601Z" fill="#002169"/>
<path d="M104.322 61.9401L102.762 43.2501C102.512 40.2101 99.9217 37.8401 96.8817 37.8401C95.2817 37.8401 93.7817 38.4701 92.6617 39.6101C91.5417 40.7501 90.9417 42.2601 90.9717 43.8601L91.2617 58.7101C89.3217 58.1001 87.1117 58.5501 85.5717 60.0801L79.2717 66.3101C77.7317 67.8301 75.8417 69.1901 73.3417 70.5901C68.2917 73.4001 65.2817 78.5601 65.2817 81.9101V89.1001C63.0317 89.3301 61.2617 91.2101 61.2617 93.5201V98.7501C61.2617 101.21 63.2617 103.21 65.7217 103.21H86.2717C88.7317 103.21 90.7317 101.21 90.7317 98.7501V93.5201C90.7317 91.3301 89.1517 89.5201 87.0717 89.1401C87.0717 89.1101 87.0717 89.0801 87.0717 89.0601C87.0317 86.5401 87.0117 85.7701 89.1017 83.3601C90.4417 81.8101 94.5517 77.6601 100.682 71.6801C103.292 69.1301 104.612 65.5901 104.312 61.9501L104.322 61.9401ZM88.1117 98.7501C88.1117 99.7601 87.2917 100.58 86.2817 100.58H65.7317C64.7217 100.58 63.9017 99.7601 63.9017 98.7501V93.5201C63.9017 92.5101 64.7217 91.6901 65.7317 91.6901H86.2817C87.2917 91.6901 88.1117 92.5101 88.1117 93.5201V98.7501ZM84.4417 89.0501H67.9117V81.9001C67.9117 79.4001 70.6717 75.0801 74.6217 72.8801C77.3417 71.3701 79.4017 69.8701 81.1217 68.1701L87.4217 61.9401C88.6017 60.7701 90.5117 60.7801 91.6917 61.9501C91.7717 62.0301 91.8317 62.1301 91.9117 62.2101C92.8517 63.4001 92.7917 65.1301 91.6917 66.2301L86.3217 71.6001L82.6517 75.2701C82.1417 75.7801 82.1417 76.6201 82.6517 77.1301C83.1617 77.6401 84.0017 77.6401 84.5117 77.1301L93.5517 68.0901C95.6217 66.0201 95.7517 62.7201 93.9317 60.5001L93.6017 43.7901C93.5817 42.9001 93.9117 42.0701 94.5417 41.4301C95.1717 40.7901 95.9917 40.4501 96.8817 40.4501C98.5717 40.4501 100.002 41.7701 100.142 43.4501L101.702 62.1401C101.942 64.9901 100.902 67.7701 98.8617 69.7601C94.4917 74.0301 88.9017 79.5501 87.1217 81.6101C84.5017 84.6401 84.4017 86.0901 84.4517 89.0301L84.4417 89.0501Z" fill="#002169"/>
<path d="M80.1717 49.28C84.5217 48.3 87.7917 44.41 87.7917 39.77C87.7917 35.13 84.5317 31.24 80.1717 30.26C76.5617 22.44 68.6717 17 59.5217 17C50.3717 17 42.4717 22.45 38.8617 30.26C34.5217 31.24 31.2617 35.13 31.2617 39.77C31.2617 44.41 34.5217 48.29 38.8617 49.28C42.4717 57.09 50.3617 62.54 59.5217 62.54C68.6817 62.54 76.5717 57.1 80.1817 49.28H80.1717ZM41.8917 49.48C41.6617 49.06 41.4617 48.63 41.2617 48.2C41.0617 47.77 40.8817 47.33 40.7117 46.88C39.8717 44.67 39.3917 42.28 39.3917 39.77C39.3917 37.26 39.8717 34.88 40.7117 32.66C40.8817 32.21 41.0617 31.77 41.2617 31.34C41.4617 30.91 41.6617 30.47 41.8917 30.06C44.4917 25.36 48.9117 21.83 54.1917 20.37V23.46C54.1917 26 56.2517 28.06 58.7917 28.06H59.6317C62.1717 28.06 64.2317 26 64.2317 23.46C64.2317 22.73 63.6417 22.14 62.9117 22.14C62.1817 22.14 61.5917 22.73 61.5917 23.46C61.5917 24.55 60.7117 25.43 59.6217 25.43H58.7817C57.7017 25.43 56.8117 24.55 56.8117 23.46V19.83C57.6917 19.71 58.5917 19.63 59.5017 19.63C67.0817 19.63 73.6917 23.85 77.1317 30.05C77.3617 30.47 77.5617 30.9 77.7617 31.33C77.9617 31.76 78.1417 32.2 78.3117 32.65C79.1517 34.86 79.6317 37.25 79.6317 39.76C79.6317 42.27 79.1517 44.65 78.3117 46.87C78.1417 47.32 77.9617 47.76 77.7617 48.19C77.5617 48.62 77.3617 49.06 77.1317 49.47C73.7017 55.68 67.0817 59.89 59.5017 59.89C51.9217 59.89 45.3117 55.67 41.8717 49.47L41.8917 49.48ZM33.8917 39.77C33.8917 37.06 35.4117 34.7 37.6517 33.49C37.0817 35.49 36.7517 37.59 36.7517 39.77C36.7517 41.95 37.0817 44.05 37.6517 46.04C35.4117 44.84 33.8917 42.48 33.8917 39.77ZM85.1617 39.77C85.1617 42.49 83.6317 44.85 81.3817 46.05C81.9617 44.05 82.2817 41.95 82.2817 39.77C82.2817 37.59 81.9517 35.49 81.3817 33.49C83.6217 34.69 85.1617 37.06 85.1617 39.77Z" fill="#002169"/>
<path d="M62.4895 45.4299C61.7695 46.3599 60.6895 46.8899 59.5195 46.8899C58.3495 46.8899 57.2695 46.3599 56.5495 45.4299C56.0995 44.8599 55.2795 44.7499 54.6995 45.1999C54.1295 45.6499 54.0195 46.4699 54.4695 47.0499C55.6895 48.6199 57.5295 49.5299 59.5195 49.5299C61.5095 49.5299 63.3495 48.6299 64.5695 47.0499C65.0195 46.4799 64.9095 45.6499 64.3395 45.1999C63.7695 44.7599 62.9395 44.8599 62.4895 45.4299Z" fill="#002169"/>
<path d="M51.9295 35.3201C51.1495 35.3201 50.4695 35.7901 50.1795 36.4701C50.0795 36.7101 50.0195 36.9601 50.0195 37.2401C50.0195 37.8301 50.2895 38.3501 50.7095 38.7001C51.0395 38.9801 51.4695 39.1601 51.9395 39.1601C52.9995 39.1601 53.8595 38.3001 53.8595 37.2401C53.8595 36.1801 52.9995 35.3201 51.9395 35.3201H51.9295Z" fill="#002169"/>
<path d="M67.0997 35.3201C66.0397 35.3201 65.1797 36.1801 65.1797 37.2401C65.1797 38.3001 66.0397 39.1601 67.0997 39.1601C67.5797 39.1601 68.0097 38.9801 68.3397 38.6901C68.7497 38.3401 69.0097 37.8201 69.0097 37.2401C69.0097 36.9701 68.9497 36.7201 68.8597 36.4901C68.5697 35.8101 67.8897 35.3301 67.0997 35.3301V35.3201Z" fill="#002169"/>
</svg>
