<svg width="120" height="120" viewBox="0 0 120 120" fill="none" xmlns="http://www.w3.org/2000/svg">
<path d="M82.7509 69.58C91.8857 69.58 99.2909 62.1748 99.2909 53.04C99.2909 43.9052 91.8857 36.5 82.7509 36.5C73.6161 36.5 66.2109 43.9052 66.2109 53.04C66.2109 62.1748 73.6161 69.58 82.7509 69.58Z" fill="#FF6B00"/>
<path d="M95.68 31H23.63C18.87 31 15 34.87 15 39.63V81.04C15 85.8 18.87 89.67 23.63 89.67H95.68C100.44 89.67 104.31 85.8 104.31 81.04V39.63C104.31 34.87 100.44 31 95.68 31ZM101.68 72.45H17.63V39.63C17.63 36.32 20.32 33.63 23.63 33.63H95.68C98.99 33.63 101.68 36.32 101.68 39.63V72.45ZM101.68 81.04C101.68 84.35 98.99 87.04 95.68 87.04H23.63C20.32 87.04 17.63 84.35 17.63 81.04V75.08H101.67V81.04H101.68Z" fill="#002169"/>
<path d="M88.3317 45.45H57.8317C57.1017 45.45 56.5117 46.04 56.5117 46.77C56.5117 47.5 57.1017 48.09 57.8317 48.09H88.3317C89.0617 48.09 89.6517 47.5 89.6517 46.77C89.6517 46.04 89.0617 45.45 88.3317 45.45Z" fill="#002169"/>
<path d="M88.3317 52.1599H57.8317C57.1017 52.1599 56.5117 52.7499 56.5117 53.4799C56.5117 54.2099 57.1017 54.7999 57.8317 54.7999H88.3317C89.0617 54.7999 89.6517 54.2099 89.6517 53.4799C89.6517 52.7499 89.0617 52.1599 88.3317 52.1599Z" fill="#002169"/>
<path d="M88.3317 58.8701H57.8317C57.1017 58.8701 56.5117 59.4601 56.5117 60.1901C56.5117 60.9201 57.1017 61.5101 57.8317 61.5101H88.3317C89.0617 61.5101 89.6517 60.9201 89.6517 60.1901C89.6517 59.4601 89.0617 58.8701 88.3317 58.8701Z" fill="#002169"/>
<path d="M41.3612 45.54L27.3512 59.55C26.8413 60.06 26.8413 60.9 27.3512 61.41C27.6112 61.67 27.9412 61.8 28.2812 61.8C28.6212 61.8 28.9512 61.67 29.2112 61.41L43.2212 47.4C43.7312 46.89 43.7312 46.05 43.2212 45.54C42.7112 45.03 41.8713 45.03 41.3612 45.54Z" fill="#002169"/>
<path d="M29.6008 50.34C31.0091 50.34 32.1508 49.1983 32.1508 47.79C32.1508 46.3817 31.0091 45.24 29.6008 45.24C28.1925 45.24 27.0508 46.3817 27.0508 47.79C27.0508 49.1983 28.1925 50.34 29.6008 50.34Z" fill="#002169"/>
<path d="M40.9719 61.7101C42.3802 61.7101 43.5219 60.5684 43.5219 59.1601C43.5219 57.7518 42.3802 56.6101 40.9719 56.6101C39.5635 56.6101 38.4219 57.7518 38.4219 59.1601C38.4219 60.5684 39.5635 61.7101 40.9719 61.7101Z" fill="#002169"/>
</svg>
