<svg width="120" height="120" viewBox="0 0 120 120" fill="none" xmlns="http://www.w3.org/2000/svg">
<path d="M82.2087 21.7798V26.5998L66.7787 29.4398L57.4788 29.9898L45.5488 28.4598L38.2188 26.4898V21.7798H82.2087Z" fill="#FF6B00"/>
<path d="M86.76 15.41C86.21 12.85 83.91 11 81.3 11H39.4C36.78 11 34.49 12.86 33.94 15.41L32.03 24.3V25.77C32.03 25.77 32 25.85 32 25.89V107.31C32 108.04 32.59 108.63 33.32 108.63H87.38C88.11 108.63 88.7 108.04 88.7 107.31V24.58L86.76 15.42V15.41ZM36.51 15.97C36.8 14.62 38.01 13.64 39.4 13.64H81.3C82.68 13.64 83.9 14.62 84.19 15.97L86.07 24.72V24.8L83.62 25.28V21.57C83.62 20.84 83.03 20.25 82.3 20.25H38.4C37.67 20.25 37.08 20.84 37.08 21.57V25.28L34.63 24.8V24.72L36.51 15.97ZM80.98 25.79L74.09 27.13C64.98 28.9 55.73 28.9 46.62 27.13L39.73 25.79V22.88H80.99V25.79H80.98ZM34.63 35.37V27.48L46.11 29.71C50.4 30.54 54.72 30.98 59.05 31.06C59.05 31.09 59.03 31.11 59.03 31.14V97.1H39.08C37.39 97.1 35.85 97.72 34.63 98.72V35.37ZM34.63 104.18C34.63 101.73 36.63 99.73 39.08 99.73H81.61C84.06 99.73 86.06 101.73 86.06 104.18V105.99H34.63V104.18ZM86.06 36.69V98.72C84.84 97.72 83.3 97.1 81.61 97.1H61.66V31.14C61.66 31.14 61.65 31.09 61.64 31.06C65.96 30.98 70.28 30.55 74.58 29.71L82.21 28.23C82.21 28.23 82.26 28.25 82.29 28.25C82.5 28.25 82.69 28.19 82.86 28.11L86.06 27.49V36.69Z" fill="#002169"/>
</svg>
