<svg width="120" height="120" viewBox="0 0 120 120" fill="none" xmlns="http://www.w3.org/2000/svg">
<path d="M88.5306 52.28C99.3775 52.28 108.171 43.4869 108.171 32.64C108.171 21.7931 99.3775 13 88.5306 13C77.6838 13 68.8906 21.7931 68.8906 32.64C68.8906 43.4869 77.6838 52.28 88.5306 52.28Z" fill="#FF6B00"/>
<path d="M105.94 103.56H100.84V83.04L104.32 85.96C104.57 86.17 104.87 86.27 105.17 86.27C105.55 86.27 105.92 86.11 106.18 85.8C106.65 85.24 106.57 84.41 106.02 83.95L101.58 80.23L106.02 76.51C106.58 76.04 106.65 75.21 106.18 74.66C105.71 74.1 104.88 74.03 104.33 74.5L100.85 77.42V72.29C100.85 71.56 100.26 70.97 99.53 70.97C98.8 70.97 98.21 71.56 98.21 72.29V77.42L94.74 74.5C94.18 74.03 93.35 74.1 92.89 74.66C92.42 75.22 92.5 76.05 93.05 76.51L97.49 80.23L93.05 83.95C92.49 84.42 92.42 85.25 92.89 85.8C93.15 86.11 93.52 86.27 93.9 86.27C94.2 86.27 94.5 86.17 94.75 85.96L98.22 83.04V103.56H89.9V39.91H93.9C94.63 39.91 95.22 39.32 95.22 38.59C95.22 37.86 94.63 37.27 93.9 37.27H77.05V32.64H79.91C80.64 32.64 81.23 32.05 81.23 31.32C81.23 30.59 80.64 30 79.91 30H39.36C38.63 30 38.04 30.59 38.04 31.32C38.04 32.05 38.63 32.64 39.36 32.64H42.22V37.27H25.38C24.65 37.27 24.06 37.86 24.06 38.59C24.06 39.32 24.65 39.91 25.38 39.91H29.38V103.56H20.73V83.04L24.21 85.96C24.46 86.17 24.76 86.27 25.06 86.27C25.44 86.27 25.81 86.11 26.07 85.8C26.54 85.24 26.46 84.41 25.91 83.95L21.47 80.23L25.91 76.51C26.47 76.04 26.54 75.21 26.07 74.66C25.6 74.1 24.77 74.03 24.22 74.5L20.74 77.42V72.29C20.74 71.56 20.15 70.97 19.42 70.97C18.69 70.97 18.1 71.56 18.1 72.29V77.42L14.62 74.5C14.07 74.03 13.23 74.1 12.77 74.66C12.3 75.22 12.38 76.05 12.93 76.51L17.37 80.23L12.93 83.95C12.37 84.42 12.3 85.25 12.77 85.8C13.03 86.11 13.4 86.27 13.78 86.27C14.08 86.27 14.38 86.17 14.63 85.96L18.11 83.04V103.56H13.32C12.59 103.56 12 104.15 12 104.88C12 105.61 12.59 106.2 13.32 106.2H105.95C106.68 106.2 107.27 105.61 107.27 104.88C107.27 104.15 106.68 103.56 105.95 103.56H105.94ZM60.95 103.56V95H66.33V103.56H60.95ZM58.31 103.56H52.93V95H58.31V103.56ZM67.64 92.36H51.62C50.89 92.36 50.3 92.95 50.3 93.68V103.56H44.86V38.59V32.65H74.4V103.56H68.96V93.68C68.96 92.95 68.37 92.36 67.64 92.36ZM42.23 103.56H32.01V39.91H42.23V103.56ZM77.04 103.56V39.91H87.26V103.56H77.04Z" fill="#002169"/>
<path d="M50.2497 36.5C49.5197 36.5 48.9297 37.09 48.9297 37.82V40.45C48.9297 41.18 49.5197 41.77 50.2497 41.77C50.9797 41.77 51.5697 41.18 51.5697 40.45V37.82C51.5697 37.09 50.9797 36.5 50.2497 36.5Z" fill="#002169"/>
<path d="M56.4997 36.5C55.7697 36.5 55.1797 37.09 55.1797 37.82V40.45C55.1797 41.18 55.7697 41.77 56.4997 41.77C57.2297 41.77 57.8197 41.18 57.8197 40.45V37.82C57.8197 37.09 57.2297 36.5 56.4997 36.5Z" fill="#002169"/>
<path d="M62.7614 36.5C62.0314 36.5 61.4414 37.09 61.4414 37.82V40.45C61.4414 41.18 62.0314 41.77 62.7614 41.77C63.4914 41.77 64.0814 41.18 64.0814 40.45V37.82C64.0814 37.09 63.4914 36.5 62.7614 36.5Z" fill="#002169"/>
<path d="M69.0114 41.7602C69.7414 41.7602 70.3314 41.1702 70.3314 40.4402V37.8102C70.3314 37.0802 69.7414 36.4902 69.0114 36.4902C68.2814 36.4902 67.6914 37.0802 67.6914 37.8102V40.4402C67.6914 41.1702 68.2814 41.7602 69.0114 41.7602Z" fill="#002169"/>
<path d="M50.2497 44.4502C49.5197 44.4502 48.9297 45.0402 48.9297 45.7702V48.4002C48.9297 49.1302 49.5197 49.7202 50.2497 49.7202C50.9797 49.7202 51.5697 49.1302 51.5697 48.4002V45.7702C51.5697 45.0402 50.9797 44.4502 50.2497 44.4502Z" fill="#002169"/>
<path d="M56.4997 44.4502C55.7697 44.4502 55.1797 45.0402 55.1797 45.7702V48.4002C55.1797 49.1302 55.7697 49.7202 56.4997 49.7202C57.2297 49.7202 57.8197 49.1302 57.8197 48.4002V45.7702C57.8197 45.0402 57.2297 44.4502 56.4997 44.4502Z" fill="#002169"/>
<path d="M62.7614 44.4502C62.0314 44.4502 61.4414 45.0402 61.4414 45.7702V48.4002C61.4414 49.1302 62.0314 49.7202 62.7614 49.7202C63.4914 49.7202 64.0814 49.1302 64.0814 48.4002V45.7702C64.0814 45.0402 63.4914 44.4502 62.7614 44.4502Z" fill="#002169"/>
<path d="M69.0114 49.7202C69.7414 49.7202 70.3314 49.1302 70.3314 48.4002V45.7702C70.3314 45.0402 69.7414 44.4502 69.0114 44.4502C68.2814 44.4502 67.6914 45.0402 67.6914 45.7702V48.4002C67.6914 49.1302 68.2814 49.7202 69.0114 49.7202Z" fill="#002169"/>
<path d="M50.2497 52.3999C49.5197 52.3999 48.9297 52.9899 48.9297 53.7199V56.3499C48.9297 57.0799 49.5197 57.6699 50.2497 57.6699C50.9797 57.6699 51.5697 57.0799 51.5697 56.3499V53.7199C51.5697 52.9899 50.9797 52.3999 50.2497 52.3999Z" fill="#002169"/>
<path d="M56.4997 52.3999C55.7697 52.3999 55.1797 52.9899 55.1797 53.7199V56.3499C55.1797 57.0799 55.7697 57.6699 56.4997 57.6699C57.2297 57.6699 57.8197 57.0799 57.8197 56.3499V53.7199C57.8197 52.9899 57.2297 52.3999 56.4997 52.3999Z" fill="#002169"/>
<path d="M62.7614 52.3999C62.0314 52.3999 61.4414 52.9899 61.4414 53.7199V56.3499C61.4414 57.0799 62.0314 57.6699 62.7614 57.6699C63.4914 57.6699 64.0814 57.0799 64.0814 56.3499V53.7199C64.0814 52.9899 63.4914 52.3999 62.7614 52.3999Z" fill="#002169"/>
<path d="M69.0114 57.6699C69.7414 57.6699 70.3314 57.0799 70.3314 56.3499V53.7199C70.3314 52.9899 69.7414 52.3999 69.0114 52.3999C68.2814 52.3999 67.6914 52.9899 67.6914 53.7199V56.3499C67.6914 57.0799 68.2814 57.6699 69.0114 57.6699Z" fill="#002169"/>
<path d="M50.2497 60.3599C49.5197 60.3599 48.9297 60.9499 48.9297 61.6799V64.3099C48.9297 65.0399 49.5197 65.6299 50.2497 65.6299C50.9797 65.6299 51.5697 65.0399 51.5697 64.3099V61.6799C51.5697 60.9499 50.9797 60.3599 50.2497 60.3599Z" fill="#002169"/>
<path d="M56.4997 60.3599C55.7697 60.3599 55.1797 60.9499 55.1797 61.6799V64.3099C55.1797 65.0399 55.7697 65.6299 56.4997 65.6299C57.2297 65.6299 57.8197 65.0399 57.8197 64.3099V61.6799C57.8197 60.9499 57.2297 60.3599 56.4997 60.3599Z" fill="#002169"/>
<path d="M62.7614 60.3599C62.0314 60.3599 61.4414 60.9499 61.4414 61.6799V64.3099C61.4414 65.0399 62.0314 65.6299 62.7614 65.6299C63.4914 65.6299 64.0814 65.0399 64.0814 64.3099V61.6799C64.0814 60.9499 63.4914 60.3599 62.7614 60.3599Z" fill="#002169"/>
<path d="M69.0114 65.6201C69.7414 65.6201 70.3314 65.0301 70.3314 64.3001V61.6701C70.3314 60.9401 69.7414 60.3501 69.0114 60.3501C68.2814 60.3501 67.6914 60.9401 67.6914 61.6701V64.3001C67.6914 65.0301 68.2814 65.6201 69.0114 65.6201Z" fill="#002169"/>
<path d="M50.2497 68.3101C49.5197 68.3101 48.9297 68.9001 48.9297 69.6301V72.2601C48.9297 72.9901 49.5197 73.5801 50.2497 73.5801C50.9797 73.5801 51.5697 72.9901 51.5697 72.2601V69.6301C51.5697 68.9001 50.9797 68.3101 50.2497 68.3101Z" fill="#002169"/>
<path d="M56.4997 68.3101C55.7697 68.3101 55.1797 68.9001 55.1797 69.6301V72.2601C55.1797 72.9901 55.7697 73.5801 56.4997 73.5801C57.2297 73.5801 57.8197 72.9901 57.8197 72.2601V69.6301C57.8197 68.9001 57.2297 68.3101 56.4997 68.3101Z" fill="#002169"/>
<path d="M62.7614 68.3101C62.0314 68.3101 61.4414 68.9001 61.4414 69.6301V72.2601C61.4414 72.9901 62.0314 73.5801 62.7614 73.5801C63.4914 73.5801 64.0814 72.9901 64.0814 72.2601V69.6301C64.0814 68.9001 63.4914 68.3101 62.7614 68.3101Z" fill="#002169"/>
<path d="M69.0114 73.5698C69.7414 73.5698 70.3314 72.9798 70.3314 72.2498V69.6198C70.3314 68.8898 69.7414 68.2998 69.0114 68.2998C68.2814 68.2998 67.6914 68.8898 67.6914 69.6198V72.2498C67.6914 72.9798 68.2814 73.5698 69.0114 73.5698Z" fill="#002169"/>
<path d="M50.2497 76.2598C49.5197 76.2598 48.9297 76.8498 48.9297 77.5798V80.2098C48.9297 80.9398 49.5197 81.5298 50.2497 81.5298C50.9797 81.5298 51.5697 80.9398 51.5697 80.2098V77.5798C51.5697 76.8498 50.9797 76.2598 50.2497 76.2598Z" fill="#002169"/>
<path d="M56.4997 76.2598C55.7697 76.2598 55.1797 76.8498 55.1797 77.5798V80.2098C55.1797 80.9398 55.7697 81.5298 56.4997 81.5298C57.2297 81.5298 57.8197 80.9398 57.8197 80.2098V77.5798C57.8197 76.8498 57.2297 76.2598 56.4997 76.2598Z" fill="#002169"/>
<path d="M62.7614 76.2598C62.0314 76.2598 61.4414 76.8498 61.4414 77.5798V80.2098C61.4414 80.9398 62.0314 81.5298 62.7614 81.5298C63.4914 81.5298 64.0814 80.9398 64.0814 80.2098V77.5798C64.0814 76.8498 63.4914 76.2598 62.7614 76.2598Z" fill="#002169"/>
<path d="M69.0114 81.5298C69.7414 81.5298 70.3314 80.9398 70.3314 80.2098V77.5798C70.3314 76.8498 69.7414 76.2598 69.0114 76.2598C68.2814 76.2598 67.6914 76.8498 67.6914 77.5798V80.2098C67.6914 80.9398 68.2814 81.5298 69.0114 81.5298Z" fill="#002169"/>
<path d="M50.2497 84.21C49.5197 84.21 48.9297 84.8 48.9297 85.53V88.16C48.9297 88.89 49.5197 89.48 50.2497 89.48C50.9797 89.48 51.5697 88.89 51.5697 88.16V85.53C51.5697 84.8 50.9797 84.21 50.2497 84.21Z" fill="#002169"/>
<path d="M56.4997 84.21C55.7697 84.21 55.1797 84.8 55.1797 85.53V88.16C55.1797 88.89 55.7697 89.48 56.4997 89.48C57.2297 89.48 57.8197 88.89 57.8197 88.16V85.53C57.8197 84.8 57.2297 84.21 56.4997 84.21Z" fill="#002169"/>
<path d="M62.7614 84.21C62.0314 84.21 61.4414 84.8 61.4414 85.53V88.16C61.4414 88.89 62.0314 89.48 62.7614 89.48C63.4914 89.48 64.0814 88.89 64.0814 88.16V85.53C64.0814 84.8 63.4914 84.21 62.7614 84.21Z" fill="#002169"/>
<path d="M70.3314 88.16V85.53C70.3314 84.8 69.7414 84.21 69.0114 84.21C68.2814 84.21 67.6914 84.8 67.6914 85.53V88.16C67.6914 88.89 68.2814 89.48 69.0114 89.48C69.7414 89.48 70.3314 88.89 70.3314 88.16Z" fill="#002169"/>
<path d="M37.1208 44.4502C36.3908 44.4502 35.8008 45.0402 35.8008 45.7702V48.4002C35.8008 49.1302 36.3908 49.7202 37.1208 49.7202C37.8508 49.7202 38.4408 49.1302 38.4408 48.4002V45.7702C38.4408 45.0402 37.8508 44.4502 37.1208 44.4502Z" fill="#002169"/>
<path d="M37.1208 52.3999C36.3908 52.3999 35.8008 52.9899 35.8008 53.7199V56.3499C35.8008 57.0799 36.3908 57.6699 37.1208 57.6699C37.8508 57.6699 38.4408 57.0799 38.4408 56.3499V53.7199C38.4408 52.9899 37.8508 52.3999 37.1208 52.3999Z" fill="#002169"/>
<path d="M37.1208 60.3599C36.3908 60.3599 35.8008 60.9499 35.8008 61.6799V64.3099C35.8008 65.0399 36.3908 65.6299 37.1208 65.6299C37.8508 65.6299 38.4408 65.0399 38.4408 64.3099V61.6799C38.4408 60.9499 37.8508 60.3599 37.1208 60.3599Z" fill="#002169"/>
<path d="M37.1208 68.3101C36.3908 68.3101 35.8008 68.9001 35.8008 69.6301V72.2601C35.8008 72.9901 36.3908 73.5801 37.1208 73.5801C37.8508 73.5801 38.4408 72.9901 38.4408 72.2601V69.6301C38.4408 68.9001 37.8508 68.3101 37.1208 68.3101Z" fill="#002169"/>
<path d="M37.1208 76.2598C36.3908 76.2598 35.8008 76.8498 35.8008 77.5798V80.2098C35.8008 80.9398 36.3908 81.5298 37.1208 81.5298C37.8508 81.5298 38.4408 80.9398 38.4408 80.2098V77.5798C38.4408 76.8498 37.8508 76.2598 37.1208 76.2598Z" fill="#002169"/>
<path d="M37.1208 84.21C36.3908 84.21 35.8008 84.8 35.8008 85.53V88.16C35.8008 88.89 36.3908 89.48 37.1208 89.48C37.8508 89.48 38.4408 88.89 38.4408 88.16V85.53C38.4408 84.8 37.8508 84.21 37.1208 84.21Z" fill="#002169"/>
<path d="M37.1208 92.1699C36.3908 92.1699 35.8008 92.7599 35.8008 93.4899V96.1199C35.8008 96.8499 36.3908 97.4399 37.1208 97.4399C37.8508 97.4399 38.4408 96.8499 38.4408 96.1199V93.4899C38.4408 92.7599 37.8508 92.1699 37.1208 92.1699Z" fill="#002169"/>
<path d="M81.57 44.4502C80.84 44.4502 80.25 45.0402 80.25 45.7702V48.4002C80.25 49.1302 80.84 49.7202 81.57 49.7202C82.3 49.7202 82.89 49.1302 82.89 48.4002V45.7702C82.89 45.0402 82.3 44.4502 81.57 44.4502Z" fill="#002169"/>
<path d="M81.57 52.3999C80.84 52.3999 80.25 52.9899 80.25 53.7199V56.3499C80.25 57.0799 80.84 57.6699 81.57 57.6699C82.3 57.6699 82.89 57.0799 82.89 56.3499V53.7199C82.89 52.9899 82.3 52.3999 81.57 52.3999Z" fill="#002169"/>
<path d="M81.57 60.3599C80.84 60.3599 80.25 60.9499 80.25 61.6799V64.3099C80.25 65.0399 80.84 65.6299 81.57 65.6299C82.3 65.6299 82.89 65.0399 82.89 64.3099V61.6799C82.89 60.9499 82.3 60.3599 81.57 60.3599Z" fill="#002169"/>
<path d="M81.57 68.3101C80.84 68.3101 80.25 68.9001 80.25 69.6301V72.2601C80.25 72.9901 80.84 73.5801 81.57 73.5801C82.3 73.5801 82.89 72.9901 82.89 72.2601V69.6301C82.89 68.9001 82.3 68.3101 81.57 68.3101Z" fill="#002169"/>
<path d="M81.57 76.2598C80.84 76.2598 80.25 76.8498 80.25 77.5798V80.2098C80.25 80.9398 80.84 81.5298 81.57 81.5298C82.3 81.5298 82.89 80.9398 82.89 80.2098V77.5798C82.89 76.8498 82.3 76.2598 81.57 76.2598Z" fill="#002169"/>
<path d="M81.57 84.21C80.84 84.21 80.25 84.8 80.25 85.53V88.16C80.25 88.89 80.84 89.48 81.57 89.48C82.3 89.48 82.89 88.89 82.89 88.16V85.53C82.89 84.8 82.3 84.21 81.57 84.21Z" fill="#002169"/>
<path d="M81.57 92.1699C80.84 92.1699 80.25 92.7599 80.25 93.4899V96.1199C80.25 96.8499 80.84 97.4399 81.57 97.4399C82.3 97.4399 82.89 96.8499 82.89 96.1199V93.4899C82.89 92.7599 82.3 92.1699 81.57 92.1699Z" fill="#002169"/>
</svg>
