<svg width="120" height="120" viewBox="0 0 120 120" fill="none" xmlns="http://www.w3.org/2000/svg">
<path d="M48.6302 63.2701C59.107 63.2701 67.6002 54.7769 67.6002 44.3001C67.6002 33.8232 59.107 25.3301 48.6302 25.3301C38.1533 25.3301 29.6602 33.8232 29.6602 44.3001C29.6602 54.7769 38.1533 63.2701 48.6302 63.2701Z" fill="#FF6B00"/>
<path d="M54.62 100.11H22.61C20.97 100.11 19.63 98.77 19.63 97.13V18.62C19.63 16.98 20.97 15.64 22.61 15.64H61.65V30.3C61.65 31.03 62.24 31.62 62.97 31.62H77.63V65.86C78.08 65.96 78.52 66.1 78.95 66.26C79.02 66.29 79.09 66.31 79.17 66.34L80.27 66.81V29.75L71.89 21.37L63.9 13.39L63.51 13H22.61C19.52 13 17 15.52 17 18.62V97.13C17 100.23 19.52 102.74 22.61 102.74H55.32C55.07 102.3 54.9 101.85 54.79 101.42C54.67 100.96 54.62 100.52 54.62 100.1V100.11Z" fill="#002169"/>
<path d="M56.16 35.0298L39.36 51.8298C38.88 52.3098 38.88 53.0898 39.36 53.5798C39.6 53.8198 39.92 53.9398 40.23 53.9398C40.54 53.9398 40.86 53.8198 41.1 53.5798L57.9 36.7798C58.38 36.2998 58.38 35.5198 57.9 35.0298C57.42 34.5398 56.64 34.5498 56.15 35.0298H56.16Z" fill="#002169"/>
<path d="M41.81 34.4199C40.12 34.4199 38.75 35.7899 38.75 37.4799C38.75 39.1699 40.12 40.5399 41.81 40.5399C43.5 40.5399 44.87 39.1699 44.87 37.4799C44.87 35.7899 43.5 34.4199 41.81 34.4199Z" fill="#002169"/>
<path d="M55.4506 54.1801C57.1406 54.1801 58.5106 52.81 58.5106 51.1201C58.5106 49.4301 57.1406 48.0601 55.4506 48.0601C53.7606 48.0601 52.3906 49.4301 52.3906 51.1201C52.3906 52.81 53.7606 54.1801 55.4506 54.1801Z" fill="#002169"/>
<path d="M67.4814 68.3599C67.5214 68.2299 67.5614 68.0899 67.5614 67.9499C67.5614 67.2199 66.9714 66.6299 66.2414 66.6299H31.0114C30.2814 66.6299 29.6914 67.2199 29.6914 67.9499C29.6914 68.6799 30.2814 69.2699 31.0114 69.2699H65.3514L67.4814 68.3699V68.3599Z" fill="#002169"/>
<path d="M29.6914 77.4301C29.6914 78.1601 30.2814 78.7501 31.0114 78.7501H46.7714C47.0914 77.6201 47.9014 76.6701 49.0214 76.2001L49.2114 76.1201H31.0114C30.2814 76.1201 29.6914 76.7101 29.6914 77.4401V77.4301Z" fill="#002169"/>
<path d="M29.6914 86.9199C29.6914 87.6499 30.2814 88.2399 31.0114 88.2399H54.6214V85.8499L54.0414 85.6099H31.0114C30.2814 85.6099 29.6914 86.1999 29.6914 86.9299V86.9199Z" fill="#002169"/>
<path d="M79.1583 93.33C79.0883 93.36 79.0183 93.38 78.9483 93.41C78.5183 93.58 78.0783 93.71 77.6283 93.81C76.9983 93.95 76.3583 94.03 75.7083 94.03C74.5083 94.03 73.3483 93.8 72.2583 93.33L60.2383 88.23L57.2383 86.96V100.04C57.2383 100.04 57.2383 100.08 57.2383 100.1C57.2483 100.57 57.3783 101 57.5983 101.42C57.8583 101.89 58.2383 102.33 58.7383 102.74C61.7783 105.18 68.9183 106.32 75.6883 106.32C84.5783 106.32 94.1483 104.36 94.1483 100.04V86.96L80.2383 92.86L79.1383 93.33H79.1583Z" fill="#002169"/>
<path d="M102.088 79.3798C102.088 79.3798 102.048 79.2998 102.028 79.2598C101.978 79.1598 101.918 79.0698 101.838 78.9798C101.808 78.9498 101.788 78.9098 101.748 78.8798C101.638 78.7798 101.518 78.6898 101.368 78.6298L80.2583 69.6698L78.9383 69.1098L78.1283 68.7698C77.9683 68.6998 77.7883 68.6698 77.6283 68.6098C77.0083 68.4098 76.3683 68.2798 75.7083 68.2798C74.8783 68.2798 74.0583 68.4398 73.2783 68.7698L55.9383 76.1298L50.0383 78.6298C49.9583 78.6598 49.8983 78.7098 49.8283 78.7598C49.4683 78.9998 49.2383 79.3998 49.2383 79.8398C49.2383 80.3698 49.5583 80.8498 50.0383 81.0498L57.1683 84.0698L57.2483 84.0998L60.7783 85.5998L63.9283 86.9398L66.7483 88.1398L73.2883 90.9098C73.6683 91.0698 74.0683 91.1998 74.4783 91.2798C74.8783 91.3598 75.2883 91.3998 75.7083 91.3998C76.3583 91.3998 76.9983 91.2698 77.6283 91.0698C77.7983 91.0198 77.9683 90.9798 78.1283 90.9098L78.9383 90.5698L80.2583 90.0098L90.0483 85.8598L94.1683 84.1098L99.5383 81.8298V93.0498C99.5383 93.7798 100.128 94.3698 100.858 94.3698C101.588 94.3698 102.178 93.7798 102.178 93.0498V79.8398C102.178 79.6798 102.138 79.5298 102.088 79.3798Z" fill="#002169"/>
</svg>
