<svg width="120" height="120" viewBox="0 0 120 120" fill="none" xmlns="http://www.w3.org/2000/svg">
<path d="M59.26 45.02C70.3112 45.02 79.27 36.0612 79.27 25.01C79.27 13.9588 70.3112 5 59.26 5C48.2088 5 39.25 13.9588 39.25 25.01C39.25 36.0612 48.2088 45.02 59.26 45.02Z" fill="#FF6B00"/>
<path d="M109.99 31.0001C108.13 29.1401 104.88 29.1401 103.02 31.0001L97.12 36.9001C96.92 32.8201 93.54 29.5601 89.41 29.5601C85.28 29.5601 81.68 33.0301 81.68 37.2901C81.68 37.3601 81.68 37.4301 81.69 37.5001L75.19 31.0001C73.33 29.1401 70.08 29.1401 68.22 31.0001C67.29 31.9301 66.78 33.1701 66.78 34.4801C66.78 35.7901 67.29 37.0301 68.22 37.9601L76.31 46.0501V51.4201C75.51 51.6401 74.75 52.0401 74.13 52.6601L68.23 58.5601C68.03 54.4801 64.65 51.2201 60.52 51.2201C56.39 51.2201 52.79 54.6901 52.79 58.9501C52.79 59.0201 52.79 59.0901 52.8 59.1601L46.3 52.6601C45.67 52.0301 44.91 51.6301 44.12 51.4201V46.0501L52.21 37.9601C53.14 37.0301 53.65 35.7901 53.65 34.4801C53.65 33.1701 53.14 31.9301 52.21 31.0001C50.35 29.1401 47.1 29.1401 45.24 31.0001L39.34 36.9001C39.14 32.8201 35.76 29.5601 31.63 29.5601C27.5 29.5601 23.9 33.0301 23.9 37.2901C23.9 37.3601 23.9 37.4301 23.91 37.5001L17.41 31.0001C15.55 29.1401 12.3 29.1401 10.44 31.0001C9.51 31.9301 9 33.1701 9 34.4801C9 35.7901 9.51 37.0301 10.44 37.9601L18.53 46.0501V88.1701C18.53 90.8901 20.74 93.1001 23.46 93.1001C26.18 93.1001 28.39 90.8901 28.39 88.1701V75.6001C28.39 74.0901 29.62 72.8701 31.12 72.8701H31.53C33.04 72.8701 34.26 74.1001 34.26 75.6001V88.1701C34.26 90.8901 36.47 93.1001 39.19 93.1001C41.91 93.1001 44.12 90.8901 44.12 88.1701V64.4201L47.42 67.7201V109.84C47.42 112.56 49.63 114.77 52.35 114.77C55.07 114.77 57.28 112.56 57.28 109.84V97.2701C57.28 95.7601 58.51 94.5401 60.01 94.5401H60.42C61.93 94.5401 63.15 95.7701 63.15 97.2701V109.84C63.15 112.56 65.36 114.77 68.08 114.77C70.8 114.77 73.01 112.56 73.01 109.84V67.7201L76.31 64.4201V88.1701C76.31 90.8901 78.52 93.1001 81.24 93.1001C83.96 93.1001 86.17 90.8901 86.17 88.1701V75.6001C86.17 74.0901 87.4 72.8701 88.9 72.8701H89.31C90.82 72.8701 92.04 74.1001 92.04 75.6001V88.1701C92.04 90.8901 94.25 93.1001 96.97 93.1001C99.69 93.1001 101.9 90.8901 101.9 88.1701V46.0501L109.99 37.9601C110.92 37.0301 111.43 35.7901 111.43 34.4801C111.43 33.1701 110.92 31.9301 109.99 31.0001ZM99.27 88.1701C99.27 89.4401 98.24 90.4701 96.98 90.4701C95.72 90.4701 94.68 89.4401 94.68 88.1701V75.6001C94.68 72.6401 92.27 70.2401 89.32 70.2401H88.91C85.95 70.2401 83.55 72.6501 83.55 75.6001V88.1701C83.55 89.4401 82.52 90.4701 81.25 90.4701C79.98 90.4701 78.96 89.4401 78.96 88.1701V67.0501H99.28V88.1701H99.27ZM70.38 109.84C70.38 111.11 69.35 112.14 68.09 112.14C66.83 112.14 65.79 111.11 65.79 109.84V97.2701C65.79 94.3101 63.38 91.9101 60.43 91.9101H60.02C57.06 91.9101 54.66 94.3201 54.66 97.2701V109.84C54.66 111.11 53.63 112.14 52.36 112.14C51.09 112.14 50.07 111.11 50.07 109.84V88.7201H70.39V109.84H70.38ZM70.38 66.6301V86.0901H50.06V66.6301L44.12 60.6901L42.8 59.3701L41.48 58.0501L41.19 57.7601C40.3 56.8701 40.3 55.4101 41.19 54.5101C41.28 54.4201 41.38 54.3501 41.48 54.2801C41.87 54.0101 42.33 53.8701 42.8 53.8701C43.26 53.8701 43.73 54.0001 44.12 54.2601C44.23 54.3401 44.34 54.4201 44.44 54.5201L54.29 64.3701C55.87 65.9501 57.97 66.8201 60.21 66.8201C62.45 66.8201 64.55 65.9501 66.13 64.3701L75.98 54.5201C76.08 54.4201 76.19 54.3301 76.3 54.2601C76.7 53.9901 77.16 53.8501 77.62 53.8501C78.08 53.8501 78.54 54.0001 78.94 54.2801C79.04 54.3501 79.14 54.4301 79.23 54.5201C80.12 55.4101 80.12 56.8701 79.23 57.7701L78.94 58.0601L77.62 59.3801L76.3 60.7001L70.36 66.6401L70.38 66.6301ZM41.49 88.1701C41.49 89.4401 40.46 90.4701 39.2 90.4701C37.94 90.4701 36.9 89.4401 36.9 88.1701V75.6001C36.9 72.6401 34.49 70.2401 31.54 70.2401H31.13C28.17 70.2401 25.77 72.6501 25.77 75.6001V88.1701C25.77 89.4401 24.74 90.4701 23.48 90.4701C22.22 90.4701 21.18 89.4401 21.18 88.1701V67.0501H41.5V88.1701H41.49ZM41.49 64.4201H21.16V44.9601L12.31 36.1001C11.42 35.2101 11.42 33.7501 12.31 32.8601C13.18 31.9901 14.69 31.9901 15.56 32.8601L25.41 42.7101C26.99 44.2901 29.1 45.1601 31.33 45.1601C33.56 45.1601 35.67 44.2901 37.25 42.7101L47.1 32.8601C47.97 31.9901 49.48 31.9901 50.35 32.8601C50.78 33.2901 51.02 33.8701 51.02 34.4801C51.02 35.0901 50.78 35.6701 50.35 36.1001L41.49 44.9601V51.4301C40.7 51.6501 39.96 52.0501 39.34 52.6601C38.41 53.5901 37.9 54.8301 37.9 56.1401C37.9 57.4501 38.41 58.6901 39.34 59.6301L41.49 61.7801V64.4101V64.4201ZM31.63 32.1901C34.44 32.1901 36.73 34.4801 36.73 37.2901C36.73 40.1001 34.44 42.3901 31.63 42.3901C28.82 42.3901 26.53 40.1001 26.53 37.2901C26.53 34.4801 28.82 32.1901 31.63 32.1901ZM60.52 53.8501C63.33 53.8501 65.62 56.1401 65.62 58.9501C65.62 61.7601 63.33 64.0501 60.52 64.0501C57.71 64.0501 55.42 61.7601 55.42 58.9501C55.42 56.1401 57.71 53.8501 60.52 53.8501ZM108.13 36.1001L99.27 44.9601V64.4201H78.95V61.7901L81.1 59.6401C82.03 58.7101 82.54 57.4701 82.54 56.1501C82.54 54.8301 82.03 53.6001 81.1 52.6701C80.48 52.0501 79.73 51.6601 78.95 51.4301V44.9601L70.09 36.1001C69.2 35.2101 69.2 33.7501 70.09 32.8601C70.96 31.9901 72.47 31.9901 73.34 32.8601L83.19 42.7101C84.77 44.2901 86.88 45.1601 89.11 45.1601C91.34 45.1601 93.45 44.2901 95.03 42.7101L104.88 32.8601C105.75 31.9901 107.26 31.9901 108.12 32.8601C109.01 33.7501 109.01 35.2101 108.12 36.1001H108.13ZM89.41 32.1901C92.22 32.1901 94.51 34.4801 94.51 37.2901C94.51 40.1001 92.22 42.3901 89.41 42.3901C86.6 42.3901 84.31 40.1001 84.31 37.2901C84.31 34.4801 86.6 32.1901 89.41 32.1901Z" fill="#002169"/>
</svg>
