<svg width="120" height="120" viewBox="0 0 120 120" fill="none" xmlns="http://www.w3.org/2000/svg">
<path d="M98.1914 50.99L22.3114 50.99V36.51C22.3114 33.53 24.7314 31.12 27.7014 31.12L92.8014 31.12C95.7814 31.12 98.1914 33.54 98.1914 36.51V50.99Z" fill="#FF6B00"/>
<path d="M89.84 29.8H80.23V24.32C80.23 23.59 79.64 23 78.91 23C78.18 23 77.59 23.59 77.59 24.32V29.8H61.56V24.32C61.56 23.59 60.97 23 60.24 23C59.51 23 58.92 23.59 58.92 24.32V29.8H42.89V24.32C42.89 23.59 42.3 23 41.57 23C40.84 23 40.25 23.59 40.25 24.32V29.8H30.64C25.34 29.8 21 34.14 21 39.47V88.27C21 93.6 25.34 97.94 30.67 97.94H89.84C95.17 97.94 99.51 93.6 99.51 88.27V39.47C99.51 34.14 95.17 29.8 89.84 29.8ZM89.84 95.31H30.67C26.79 95.31 23.63 92.15 23.63 88.27V50.99H96.87V88.28C96.87 92.16 93.71 95.32 89.83 95.32L89.84 95.31ZM30.67 32.43H40.28V37.48C40.28 38.21 40.87 38.8 41.6 38.8C42.33 38.8 42.92 38.21 42.92 37.48V32.43H58.95V37.48C58.95 38.21 59.54 38.8 60.27 38.8C61 38.8 61.59 38.21 61.59 37.48V32.43H77.62V37.48C77.62 38.21 78.21 38.8 78.94 38.8C79.67 38.8 80.26 38.21 80.26 37.48V32.43H89.87C93.75 32.43 96.91 35.59 96.91 39.47V48.36H23.63V39.47C23.63 35.59 26.79 32.43 30.67 32.43Z" fill="#002169"/>
<path d="M71.7892 69.3901H65.9392L56.7892 58.2201C56.3292 57.6601 55.5492 57.4801 54.8892 57.7801C54.0892 58.1501 53.7292 59.0801 54.0892 59.8801C55.1092 62.1601 57.0992 66.6201 58.3092 69.3801H50.6692L47.3492 66.3501C46.9092 65.9501 46.1992 66.2601 46.1992 66.8601V76.9901C46.1992 77.5901 46.9092 77.9001 47.3492 77.5001L50.6692 74.4701H58.3092C57.1092 77.2301 55.1192 81.6901 54.0892 83.9701C53.7292 84.7701 54.0892 85.7101 54.8892 86.0701C55.5492 86.3701 56.3292 86.1901 56.7892 85.6301L65.9392 74.4601H71.7892C73.1892 74.4601 74.3292 73.3201 74.3292 71.9201C74.3292 70.5201 73.1892 69.3801 71.7892 69.3801V69.3901Z" fill="#002169"/>
</svg>
