<svg width="120" height="120" viewBox="0 0 120 120" fill="none" xmlns="http://www.w3.org/2000/svg">
<path d="M58.8119 72.0075C68.5542 72.0075 76.4519 64.1098 76.4519 54.3675C76.4519 44.6252 68.5542 36.7275 58.8119 36.7275C49.0696 36.7275 41.1719 44.6252 41.1719 54.3675C41.1719 64.1098 49.0696 72.0075 58.8119 72.0075Z" fill="#FF6B00"/>
<path d="M99.6319 83.0575L86.5219 64.3375C86.7119 64.0575 86.9219 63.7975 87.1719 63.5475L90.5519 60.1675C93.8419 56.8775 93.8419 51.5275 90.5519 48.2375L87.1719 44.8575C86.0719 43.7575 85.4719 42.3075 85.4719 40.7575V35.9775C85.4719 31.3275 81.6919 27.5475 77.0319 27.5475H72.2519C70.7019 27.5475 69.2419 26.9475 68.1519 25.8475L64.7719 22.4675C61.4819 19.1775 56.1319 19.1775 52.8419 22.4675L49.4619 25.8475C48.3619 26.9475 46.9119 27.5475 45.3619 27.5475H40.5819C35.9319 27.5475 32.1419 31.3275 32.1419 35.9775V40.7575C32.1419 42.3075 31.5419 43.7675 30.4419 44.8575L27.0619 48.2375C23.7719 51.5275 23.7719 56.8775 27.0619 60.1675L30.4419 63.5475C31.3219 64.4275 31.8719 65.5475 32.0519 66.7575L20.6519 83.0575C19.9819 84.0175 19.8219 85.1975 20.2019 86.2975C20.5819 87.3975 21.4419 88.2275 22.5619 88.5675L30.9819 91.1175C31.1719 91.1775 31.3419 91.2875 31.4719 91.4475L37.1819 98.8675C37.8719 99.7575 38.9019 100.268 40.0319 100.268C40.0619 100.268 40.0919 100.268 40.1119 100.268C41.2719 100.238 42.3119 99.6875 42.9819 98.7375L52.3119 85.4075L52.8519 85.9475C54.4919 87.5875 56.6519 88.4175 58.8119 88.4175C60.9719 88.4175 63.1319 87.5975 64.7719 85.9475L66.8719 83.8475L77.3019 98.7475C77.9619 99.6975 79.0119 100.257 80.1719 100.277C80.2019 100.277 80.2319 100.277 80.2519 100.277C81.3719 100.277 82.4119 99.7675 83.1019 98.8775L88.8219 91.4575C88.9419 91.2975 89.1119 91.1775 89.3019 91.1275L97.7219 88.5775C98.8419 88.2375 99.7019 87.4175 100.082 86.3075C100.462 85.2075 100.302 84.0275 99.6319 83.0675V83.0575ZM97.6019 85.4375C97.5019 85.7375 97.2719 85.9575 96.9719 86.0475L88.5519 88.5975C87.8319 88.8175 87.2019 89.2475 86.7419 89.8475L81.0319 97.2675C80.8419 97.5175 80.5919 97.6575 80.2419 97.6475C79.9319 97.6475 79.6519 97.4875 79.4719 97.2375L68.8219 82.0275C69.8119 81.2875 71.0019 80.8775 72.2619 80.8775H77.0419C81.6919 80.8775 85.4819 77.0975 85.4819 72.4375V67.6575C85.4819 67.5875 85.5019 67.5275 85.5019 67.4575L97.4919 84.5775C97.6719 84.8375 97.7119 85.1475 97.6119 85.4475L97.6019 85.4375ZM54.7119 84.0875L53.8519 83.2275L52.9019 82.2775L51.9519 81.3275L51.3319 80.7075C49.7419 79.1175 47.6219 78.2375 45.3719 78.2375H40.5919C37.3919 78.2375 34.7919 75.6375 34.7919 72.4375V67.6575C34.7919 67.5975 34.7919 67.5475 34.7919 67.4875C34.7819 66.8275 34.6919 66.1875 34.5319 65.5675C34.4019 65.0475 34.2119 64.5375 33.9819 64.0475C33.5719 63.1875 33.0219 62.3875 32.3319 61.6875L28.9519 58.3075C26.6919 56.0475 26.6919 52.3675 28.9519 50.0975L32.3319 46.7175C33.9219 45.1275 34.8019 43.0075 34.8019 40.7575V35.9775C34.8019 32.7775 37.4019 30.1775 40.6019 30.1775H45.3819C47.6319 30.1775 49.7519 29.2975 51.3419 27.7075L54.7219 24.3275C56.9819 22.0675 60.6619 22.0675 62.9319 24.3275L66.3119 27.7075C67.9019 29.2975 70.0219 30.1775 72.2719 30.1775H77.0519C80.2519 30.1775 82.8519 32.7775 82.8519 35.9775V40.7575C82.8519 43.0075 83.7319 45.1275 85.3219 46.7175L88.7019 50.0975C90.9619 52.3575 90.9619 56.0375 88.7019 58.3075L85.3219 61.6875C85.1919 61.8175 85.0819 61.9475 84.9619 62.0875C84.6519 62.4375 84.3719 62.8075 84.1319 63.1975C83.8719 63.6175 83.6419 64.0675 83.4519 64.5275C83.0619 65.5075 82.8519 66.5675 82.8519 67.6575V72.4375C82.8519 75.6375 80.2519 78.2375 77.0519 78.2375H72.2719C70.4619 78.2375 68.7519 78.8075 67.3119 79.8575C66.9619 80.1175 66.6219 80.3975 66.3019 80.7075L65.3519 81.6575L62.9219 84.0875C60.6619 86.3475 56.9819 86.3475 54.7119 84.0875ZM39.2619 97.2675L33.5519 89.8475C33.0919 89.2475 32.4619 88.8175 31.7419 88.5975L23.3219 86.0475C23.0219 85.9575 22.7919 85.7375 22.6919 85.4375C22.5919 85.1375 22.6319 84.8275 22.8119 84.5675L32.1519 71.2275V72.4275C32.1519 77.0775 35.9319 80.8675 40.5919 80.8675H45.3719C46.9219 80.8675 48.3819 81.4675 49.4719 82.5675L50.4219 83.5175L40.8219 97.2275C40.6419 97.4775 40.3619 97.6275 40.0519 97.6375C39.7119 97.6375 39.4519 97.5075 39.2619 97.2575V97.2675Z" fill="#002169"/>
<path d="M78.0881 56.8875C78.1781 56.2175 78.2381 55.5275 78.2581 54.8375C78.2581 54.6275 78.2881 54.4175 78.2881 54.2075C78.2881 53.6175 78.2481 53.0375 78.1981 52.4575C77.3081 42.5275 68.9581 34.7275 58.8081 34.7275C48.0681 34.7275 39.3281 43.4675 39.3281 54.2075C39.3281 54.8975 39.3681 55.5675 39.4381 56.2375C39.5081 56.8775 39.5981 57.5075 39.7281 58.1175C39.8481 58.6875 39.9981 59.2475 40.1581 59.7975C42.4381 67.3775 49.1981 73.0075 57.3581 73.6175C57.8381 73.6575 58.3281 73.6875 58.8181 73.6875C58.8481 73.6875 58.8881 73.6875 58.9181 73.6875C59.1981 73.6875 59.4681 73.6575 59.7481 73.6475C60.0281 73.6375 60.3081 73.6275 60.5881 73.6075C60.8181 73.5875 61.0381 73.5575 61.2681 73.5275C61.7581 73.4675 62.2481 73.3975 62.7181 73.3075C70.7381 71.6675 76.9581 65.0875 78.0981 56.8875H78.0881ZM62.6881 70.5975C62.1481 70.7275 61.5881 70.8275 61.0281 70.8975C60.9681 70.8975 60.9081 70.9175 60.8481 70.9275C60.4081 70.9775 59.9581 71.0075 59.5081 71.0275C59.3881 71.0275 59.2681 71.0475 59.1581 71.0475C59.0381 71.0475 58.9281 71.0675 58.8081 71.0675C58.4981 71.0675 58.1981 71.0375 57.8981 71.0175C49.9381 70.5875 43.4381 64.6175 42.1981 56.8975C42.0881 56.2375 42.0281 55.5675 41.9981 54.8875C41.9981 54.6675 41.9681 54.4475 41.9681 54.2175C41.9681 53.6475 41.9981 53.0775 42.0581 52.5175C42.9081 44.0175 50.1081 37.3675 58.8181 37.3675C65.3381 37.3675 70.9881 41.0875 73.7881 46.5175C74.4381 47.7775 74.9281 49.1175 75.2481 50.5375C75.4581 51.4575 75.5781 52.3975 75.6281 53.3675C75.6381 53.6475 75.6681 53.9375 75.6681 54.2175C75.6681 62.1775 70.1181 68.8475 62.6981 70.5975H62.6881Z" fill="#002169"/>
<path d="M68.9595 47.1776C68.9095 47.1276 68.8395 47.1076 68.7795 47.0576C67.9995 46.4376 66.8895 46.4576 66.1695 47.1776L60.4795 52.8676L60.2095 53.1376L59.2595 54.0876L58.3095 55.0376L55.9895 57.3576L55.1995 56.5676L51.4495 52.8176C50.6795 52.0476 49.4295 52.0476 48.6595 52.8176C47.8895 53.5876 47.8895 54.8376 48.6595 55.6076L52.1395 59.0876L53.1195 60.0676L54.3595 61.3076L54.5995 61.5476C54.9895 61.9376 55.4895 62.1276 55.9995 62.1276C56.5095 62.1276 57.0095 61.9376 57.3995 61.5476L61.6095 57.3376L62.5595 56.3876L63.5095 55.4376L68.4095 50.5376L68.9895 49.9576C69.4795 49.4676 69.6195 48.7976 69.4895 48.1676C69.4195 47.7976 69.2695 47.4476 68.9895 47.1576L68.9595 47.1776Z" fill="#002169"/>
</svg>
