<svg width="120" height="120" viewBox="0 0 120 120" fill="none" xmlns="http://www.w3.org/2000/svg">
<path d="M48.9883 16V38.81L55.7383 35.46L62.4583 38.81L62.4783 16H48.9883Z" fill="#FF6B00"/>
<path d="M82.3081 78.3301C92.3763 78.3301 100.538 70.1683 100.538 60.1001C100.538 50.032 92.3763 41.8701 82.3081 41.8701C72.24 41.8701 64.0781 50.032 64.0781 60.1001C64.0781 70.1683 72.24 78.3301 82.3081 78.3301Z" fill="#FF6B00"/>
<path d="M83.5 40.57V17.32C83.5 16.59 82.91 16 82.18 16H28.56C22.18 16 17 21.18 17 27.56V95.38C17 95.46 17.03 95.54 17.05 95.62C17.52 100.5 21.65 104.32 26.65 104.32H82.19C82.92 104.32 83.51 103.73 83.51 103V102.76C83.51 102.26 83.23 101.8 82.78 101.58C81.43 100.92 79.03 98.04 79.03 94.67C79.03 91.3 81.43 88.42 82.78 87.76C83.23 87.54 83.51 87.08 83.51 86.58V80.2C93.86 79.52 102.07 70.91 102.07 60.39C102.07 49.87 93.85 41.26 83.51 40.58L83.5 40.57ZM83.5 77.57C83.06 77.6 82.63 77.64 82.18 77.64C81.74 77.64 81.3 77.61 80.86 77.57C71.97 76.89 64.93 69.46 64.93 60.39C64.93 51.32 71.96 43.89 80.86 43.21C81.3 43.18 81.73 43.14 82.18 43.14C82.62 43.14 83.06 43.17 83.5 43.21C92.39 43.89 99.43 51.32 99.43 60.39C99.43 69.46 92.4 76.89 83.5 77.57ZM76.39 94.67C76.39 97.48 77.57 99.95 78.97 101.68H26.64C22.86 101.68 19.79 98.66 19.65 94.91C19.65 94.83 19.63 94.75 19.63 94.67C19.63 90.8 22.77 87.66 26.64 87.66H78.96C77.56 89.39 76.38 91.86 76.38 94.67H76.39ZM19.63 27.56C19.63 23.09 22.94 19.37 27.24 18.73V85.03H26.64C23.88 85.03 21.39 86.2 19.63 88.07V27.56ZM61.17 18.63V36.89L56.39 34.18C56.19 34.07 55.97 34.01 55.74 34.01C55.51 34.01 55.29 34.07 55.09 34.18L50.31 36.89V18.63H61.17ZM48.32 40.29C48.72 40.53 49.22 40.53 49.63 40.29L55.73 36.83L61.83 40.29C62.03 40.4 62.26 40.46 62.48 40.46C62.7 40.46 62.94 40.4 63.14 40.28C63.54 40.04 63.79 39.61 63.79 39.14V18.63H80.86V40.57C70.51 41.25 62.3 49.86 62.3 60.38C62.3 70.9 70.52 79.51 80.86 80.19V85.02H29.87V18.63H47.67V39.15C47.67 39.62 47.92 40.05 48.32 40.29Z" fill="#002169"/>
<path d="M83.5016 59.14C83.2216 59.09 82.9416 59.06 82.6516 59.05C82.6316 59.05 82.6116 59.05 82.5816 59.05H81.7916C81.4616 59.05 81.1516 58.98 80.8716 58.85C80.0616 58.49 79.5016 57.69 79.5016 56.75C79.5016 55.81 80.0716 55.01 80.8716 54.65C81.1516 54.53 81.4616 54.45 81.7916 54.45H85.7316C86.4616 54.45 87.0516 53.86 87.0516 53.13C87.0516 52.4 86.4616 51.81 85.7316 51.81H83.5016V48.81C83.5016 48.08 82.9116 47.49 82.1816 47.49C81.4516 47.49 80.8616 48.08 80.8616 48.81V51.9C78.5816 52.33 76.8516 54.33 76.8516 56.73C76.8516 59.13 78.5816 61.13 80.8616 61.57C81.0016 61.6 81.1516 61.6 81.3016 61.61C81.4616 61.63 81.6216 61.66 81.7816 61.66H82.5716C82.9016 61.66 83.2116 61.73 83.4916 61.86C84.3016 62.22 84.8616 63.03 84.8616 64C84.8616 64.97 84.2916 65.74 83.4916 66.1C83.2116 66.22 82.9016 66.3 82.5716 66.3H78.1716C77.4416 66.3 76.8516 66.89 76.8516 67.62C76.8516 68.35 77.4416 68.94 78.1716 68.94H80.8616V71.94C80.8616 72.67 81.4516 73.26 82.1816 73.26C82.9116 73.26 83.5016 72.67 83.5016 71.94V68.85C85.7816 68.42 87.5116 66.41 87.5116 63.97C87.5116 61.53 85.7816 59.57 83.5016 59.14Z" fill="#002169"/>
</svg>
