<svg width="120" height="120" viewBox="0 0 120 120" fill="none" xmlns="http://www.w3.org/2000/svg">
<path d="M47.5917 56.0199C56.1963 56.0199 63.1717 49.0445 63.1717 40.4399C63.1717 31.8353 56.1963 24.8599 47.5917 24.8599C38.9871 24.8599 32.0117 31.8353 32.0117 40.4399C32.0117 49.0445 38.9871 56.0199 47.5917 56.0199Z" fill="#FF6B00"/>
<path d="M47.5884 23.71C38.3884 23.71 30.8984 31.2 30.8984 40.4C30.8984 49.6 38.3884 57.09 47.5884 57.09C56.7884 57.09 64.2784 49.6 64.2784 40.4C64.2784 31.2 56.7884 23.71 47.5884 23.71ZM47.5884 54.46C39.8384 54.46 33.5284 48.15 33.5284 40.4C33.5284 32.65 39.8384 26.34 47.5884 26.34C55.3384 26.34 61.6484 32.65 61.6484 40.4C61.6484 48.15 55.3384 54.46 47.5884 54.46Z" fill="#002169"/>
<path d="M48.0914 39.09C48.0314 39.09 47.9814 39.07 47.9214 39.07H47.2614C46.3414 39.07 45.5814 38.32 45.5814 37.39C45.5814 36.46 46.3314 35.71 47.2614 35.71H50.5314C51.2614 35.71 51.8514 35.12 51.8514 34.39C51.8514 33.66 51.2614 33.07 50.5314 33.07H48.9114V30.81C48.9114 30.08 48.3214 29.49 47.5914 29.49C46.8614 29.49 46.2714 30.08 46.2714 30.81V33.19C44.3714 33.64 42.9514 35.34 42.9514 37.37C42.9514 39.57 44.6114 41.37 46.7414 41.63C46.9114 41.65 47.0814 41.68 47.2514 41.68H47.9114C48.8314 41.68 49.5914 42.43 49.5914 43.39C49.5914 44.35 48.8414 45.07 47.9114 45.07H44.2614C43.5314 45.07 42.9414 45.66 42.9414 46.39C42.9414 47.12 43.5314 47.71 44.2614 47.71H46.2614V49.97C46.2614 50.7 46.8514 51.29 47.5814 51.29C48.3114 51.29 48.9014 50.7 48.9014 49.97V47.59C50.8014 47.14 52.2214 45.44 52.2214 43.37C52.2214 41.05 50.3814 39.17 48.0814 39.08L48.0914 39.09Z" fill="#002169"/>
<path d="M61.5608 65.5901H33.6208C32.8908 65.5901 32.3008 66.1801 32.3008 66.9101C32.3008 67.6401 32.8908 68.2301 33.6208 68.2301H61.5708C62.3008 68.2301 62.8908 67.6401 62.8908 66.9101C62.8908 66.1801 62.3008 65.5901 61.5708 65.5901H61.5608Z" fill="#002169"/>
<path d="M61.5608 73.76H33.6208C32.8908 73.76 32.3008 74.35 32.3008 75.08C32.3008 75.81 32.8908 76.4 33.6208 76.4H61.5708C62.3008 76.4 62.8908 75.81 62.8908 75.08C62.8908 74.35 62.3008 73.76 61.5708 73.76H61.5608Z" fill="#002169"/>
<path d="M61.5608 81.9299H33.6208C32.8908 81.9299 32.3008 82.5199 32.3008 83.2499C32.3008 83.9799 32.8908 84.5699 33.6208 84.5699H61.5708C62.3008 84.5699 62.8908 83.9799 62.8908 83.2499C62.8908 82.5199 62.3008 81.9299 61.5708 81.9299H61.5608Z" fill="#002169"/>
<path d="M95.36 40.4H81.99V30.75L81.6 30.36L65.63 14.39L65.24 14H29.61C26.52 14 24 16.52 24 19.61V87.59C24 90.69 26.52 93.2 29.61 93.2H68.78V93.61C68.78 96.82 71.39 99.44 74.6 99.44H95.35C98.56 99.44 101.18 96.83 101.18 93.61V46.23C101.18 43.02 98.57 40.4 95.35 40.4H95.36ZM98.56 49.78H71.43V46.23C71.43 44.47 72.86 43.04 74.62 43.04H95.37C97.13 43.04 98.56 44.47 98.56 46.23V49.78ZM98.56 93.61C98.56 95.37 97.13 96.8 95.37 96.8H74.62C72.86 96.8 71.43 95.37 71.43 93.61V89.01H98.56V93.61ZM26.63 87.59V19.61C26.63 17.97 27.97 16.63 29.61 16.63H63.38V31.29C63.38 32.02 63.97 32.61 64.7 32.61H79.36V40.4H74.61C71.4 40.4 68.79 43.01 68.79 46.23V90.57H29.61C27.97 90.57 26.63 89.23 26.63 87.59ZM80.68 86.38H71.42V52.41H98.55V86.38H80.67H80.68ZM66.02 18.49L77.5 29.97H66.02V18.49Z" fill="#002169"/>
<path d="M86.2481 45.23H79.8981C79.7081 45.23 79.5281 45.28 79.3581 45.35C78.8981 45.56 78.5781 46.01 78.5781 46.55C78.5781 47.09 78.8981 47.54 79.3581 47.75C79.5181 47.82 79.6981 47.87 79.8981 47.87H86.2481C86.9781 47.87 87.5681 47.28 87.5681 46.55C87.5681 45.82 86.9781 45.23 86.2481 45.23Z" fill="#002169"/>
<path d="M90.5817 45.3299C90.0917 45.1299 89.5117 45.2499 89.1417 45.6199C88.8917 45.8599 88.7617 46.1999 88.7617 46.5499C88.7617 46.8999 88.8917 47.2299 89.1417 47.4699C89.3917 47.7199 89.7217 47.8699 90.0717 47.8699C90.2417 47.8699 90.4117 47.8299 90.5717 47.7599C90.7317 47.6899 90.8717 47.5899 91.0017 47.4699C91.2417 47.2299 91.3817 46.8899 91.3817 46.5499C91.3817 46.2099 91.2417 45.8499 91.0017 45.6199C90.8717 45.4999 90.7217 45.3999 90.5717 45.3299H90.5817Z" fill="#002169"/>
<path d="M84.9903 94.6601C86.1888 94.6601 87.1603 93.6885 87.1603 92.4901C87.1603 91.2916 86.1888 90.3201 84.9903 90.3201C83.7919 90.3201 82.8203 91.2916 82.8203 92.4901C82.8203 93.6885 83.7919 94.6601 84.9903 94.6601Z" fill="#002169"/>
</svg>
