<svg width="120" height="120" viewBox="0 0 120 120" fill="none" xmlns="http://www.w3.org/2000/svg">
<path d="M71.3114 45.29H49.2114C48.7714 50.43 41.4414 53.06 41.4414 53.06C41.4414 68.49 45.5414 74.37 49.1014 78.45C53.2014 83.16 60.2614 84.69 60.2614 84.69C60.2614 84.69 67.4814 82.94 71.4214 78.45C74.9914 74.38 79.0814 68.49 79.0814 53.06C79.0814 53.06 71.7514 50.54 71.3114 45.29Z" fill="#FF6B00"/>
<path d="M89.91 16.58H77.18V13.97C77.18 11.78 75.4 10 73.21 10H47.29C45.1 10 43.32 11.78 43.32 13.97V16.58H30.6C25.31 16.58 21 20.89 21 26.18V101.39C21 106.68 25.31 110.99 30.6 110.99H89.91C95.2 110.99 99.51 106.68 99.51 101.39V26.18C99.51 20.89 95.2 16.58 89.91 16.58ZM96.88 101.39C96.88 105.23 93.75 108.36 89.91 108.36H30.6C26.76 108.36 23.63 105.23 23.63 101.39V26.18C23.63 22.34 26.76 19.21 30.6 19.21H43.32V23.16H31.26C29.23 23.16 27.58 24.81 27.58 26.84V100.72C27.58 102.75 29.23 104.4 31.26 104.4H89.24C91.27 104.4 92.92 102.75 92.92 100.72V26.85C92.92 24.82 91.27 23.17 89.24 23.17H77.18V19.22H89.91C93.75 19.22 96.88 22.35 96.88 26.19V101.4V101.39ZM45.96 16.58V13.97C45.96 13.23 46.56 12.63 47.3 12.63H73.22C73.96 12.63 74.56 13.23 74.56 13.97V23.16H45.97V16.58H45.96ZM77.18 25.8H89.24C89.82 25.8 90.29 26.27 90.29 26.85V100.73C90.29 101.31 89.82 101.78 89.24 101.78H31.26C30.68 101.78 30.21 101.31 30.21 100.73V26.85C30.21 26.27 30.68 25.8 31.26 25.8H77.18Z" fill="#002169"/>
<path d="M40.1094 53.0602C40.1094 68.0902 43.9494 74.5602 48.0994 79.3202C52.4394 84.3002 59.6694 85.9102 59.9794 85.9802C60.0694 86.0002 60.1694 86.0102 60.2594 86.0102C60.3594 86.0102 60.4694 86.0002 60.5694 85.9702C60.8794 85.8902 68.2494 84.0702 72.4094 79.3202C76.5594 74.5902 80.3994 68.1402 80.3994 53.0602C80.3994 52.5002 80.0394 52.0002 79.5094 51.8202C79.4494 51.8002 72.9794 49.5102 72.6194 45.1802C72.5594 44.5002 71.9894 43.9702 71.3094 43.9702H49.2094C48.5294 43.9702 47.9594 44.4902 47.8994 45.1702C47.5394 49.4002 41.0594 51.7902 40.9894 51.8202C40.4694 52.0102 40.1194 52.5002 40.1194 53.0602H40.1094ZM70.1994 46.6102C71.2694 50.7502 75.7994 53.1102 77.7594 53.9602C77.6094 68.2102 73.9094 73.6302 70.4294 77.5902C67.2494 81.2102 61.5894 82.9602 60.2394 83.3402C58.9094 83.0002 53.3994 81.4002 50.0794 77.6002C46.5994 73.6102 42.8994 68.1602 42.7494 53.9502C44.6894 53.0902 49.2194 50.6902 50.2994 46.6102H70.1894H70.1994Z" fill="#002169"/>
<path d="M57.9888 69.0699C58.3788 69.4599 58.8787 69.6499 59.3887 69.6499C59.8987 69.6499 60.3988 69.4599 60.7888 69.0699L69.0487 60.8099C69.8187 60.0399 69.8187 58.7899 69.0487 58.0199C68.2787 57.2499 67.0287 57.2499 66.2587 58.0199L63.2888 60.9899L59.3887 64.8899L57.5588 63.0599L56.8988 62.3999C56.1288 61.6299 54.8787 61.6299 54.1087 62.3999C53.3388 63.1699 53.3388 64.4199 54.1087 65.1899L57.9888 69.0699Z" fill="#002169"/>
</svg>
