<svg width="120" height="120" viewBox="0 0 120 120" fill="none" xmlns="http://www.w3.org/2000/svg">
<path d="M98.1009 47.0801C107.843 47.0801 115.741 39.1824 115.741 29.44C115.741 19.6977 107.843 11.8 98.1009 11.8C88.3586 11.8 80.4609 19.6977 80.4609 29.44C80.4609 39.1824 88.3586 47.0801 98.1009 47.0801Z" fill="#FF6B00"/>
<path d="M23.6713 84.89C24.6613 85.59 25.8713 86 27.1713 86C30.5513 86 33.3012 83.25 33.3012 79.87C33.3012 79.42 33.2413 78.99 33.1512 78.56C33.1112 78.38 33.0413 78.2 32.9812 78.02C32.8912 77.75 32.8013 77.49 32.6813 77.24C32.5913 77.05 32.4912 76.86 32.3812 76.68C32.0812 76.19 31.7212 75.75 31.3012 75.36C30.9112 75 30.4713 74.7 30.0013 74.45C29.1512 74 28.1912 73.72 27.1613 73.72C26.6213 73.72 26.1113 73.81 25.6213 73.94C25.1613 74.06 24.7313 74.23 24.3212 74.45C24.1712 74.53 24.0113 74.6 23.8713 74.7C23.2913 75.07 22.7913 75.54 22.3713 76.08C22.1313 76.39 21.9112 76.72 21.7312 77.07C21.3012 77.91 21.0312 78.85 21.0312 79.85C21.0312 81.27 21.5313 82.56 22.3513 83.6C22.7313 84.08 23.1613 84.52 23.6713 84.87V84.89ZM29.4712 77.24C29.7212 77.46 29.9512 77.71 30.1312 78C30.2412 78.18 30.3413 78.36 30.4213 78.56C30.5813 78.96 30.6813 79.4 30.6813 79.87C30.6813 81.8 29.1113 83.36 27.1813 83.36C25.2513 83.36 23.6813 81.79 23.6813 79.86C23.6813 79.51 23.7513 79.19 23.8413 78.87C23.8713 78.78 23.8913 78.68 23.9313 78.59C24.0613 78.25 24.2512 77.95 24.4812 77.67C24.7612 77.33 25.0912 77.04 25.4812 76.83C25.5712 76.78 25.6512 76.73 25.7413 76.69C26.1813 76.49 26.6713 76.37 27.1813 76.37C27.6913 76.37 28.1813 76.49 28.6213 76.69C28.9313 76.83 29.2112 77.02 29.4712 77.25V77.24Z" fill="#002169"/>
<path d="M77.4581 86C78.7581 86 79.9681 85.59 80.9581 84.89C81.4581 84.54 81.8981 84.1 82.2781 83.62C83.0881 82.58 83.5981 81.29 83.5981 79.87C83.5981 78.86 83.3281 77.93 82.8981 77.09C82.7181 76.74 82.5081 76.41 82.2581 76.1C81.8381 75.56 81.3381 75.09 80.7581 74.72C80.6181 74.63 80.4581 74.55 80.3081 74.47C79.8981 74.25 79.4681 74.08 79.0081 73.96C78.5081 73.83 77.9981 73.74 77.4681 73.74C76.4381 73.74 75.4781 74.02 74.6281 74.47C74.1581 74.72 73.7181 75.02 73.3281 75.38C72.9081 75.77 72.5481 76.21 72.2481 76.7C72.1381 76.88 72.0381 77.07 71.9481 77.26C71.8281 77.51 71.7381 77.77 71.6481 78.04C71.5881 78.22 71.5181 78.39 71.4781 78.58C71.3881 79 71.3281 79.44 71.3281 79.89C71.3281 83.27 74.0781 86.02 77.4581 86.02V86ZM73.9581 79.86C73.9581 79.4 74.0481 78.96 74.2181 78.55C74.2981 78.35 74.3981 78.17 74.5081 77.99C74.6881 77.7 74.9081 77.45 75.1681 77.23C75.4281 77.01 75.7081 76.82 76.0181 76.67C76.4581 76.47 76.9481 76.35 77.4581 76.35C77.9681 76.35 78.4581 76.47 78.8981 76.67C78.9881 76.71 79.0681 76.76 79.1581 76.81C79.5481 77.03 79.8781 77.31 80.1581 77.65C80.3881 77.93 80.5781 78.23 80.7081 78.57C80.7481 78.66 80.7681 78.76 80.7981 78.85C80.8881 79.17 80.9581 79.49 80.9581 79.84C80.9581 81.77 79.3881 83.34 77.4581 83.34C75.5281 83.34 73.9581 81.77 73.9581 79.85V79.86Z" fill="#002169"/>
<path d="M40.4816 78.56C40.5416 78.56 40.5916 78.59 40.6516 78.59H63.9816C64.0416 78.59 64.0916 78.56 64.1516 78.56C64.7916 78.47 65.3016 77.94 65.3016 77.28C65.3016 77.27 65.3016 77.26 65.3016 77.25C65.2816 76.54 64.7116 75.97 63.9916 75.97H40.6616C39.9516 75.97 39.3716 76.54 39.3516 77.25C39.3516 77.26 39.3516 77.27 39.3516 77.28C39.3516 77.95 39.8516 78.47 40.5016 78.56H40.4816Z" fill="#002169"/>
<path d="M40.6481 83.91H63.9781C64.7081 83.91 65.2981 83.32 65.2981 82.59C65.2981 81.86 64.7081 81.27 63.9781 81.27H40.6481C39.9181 81.27 39.3281 81.86 39.3281 82.59C39.3281 83.32 39.9181 83.91 40.6481 83.91Z" fill="#002169"/>
<path d="M117.07 29.44C117.07 19.32 109.17 11.02 99.22 10.34V3.32C99.22 2.59 98.63 2 97.9 2C97.17 2 96.58 2.59 96.58 3.32V10.34C86.63 11.02 78.73 19.32 78.73 29.44C78.73 39.56 86.63 47.86 96.58 48.54V97.75H83.35C83.5 97.34 83.59 96.9 83.59 96.43V92.69H87.54C89.72 92.69 91.49 90.92 91.49 88.74V71.26C91.49 69.08 89.72 67.31 87.54 67.31H85.28L76.61 47.62C75.09 44.16 71.66 41.92 67.88 41.92H36.73C32.95 41.92 29.52 44.16 28 47.62L19.33 67.31H17.07C14.89 67.31 13.12 69.08 13.12 71.26V88.74C13.12 90.92 14.89 92.69 17.07 92.69H21.02V96.43C21.02 96.89 21.12 97.33 21.26 97.75H8.32C7.59 97.75 7 98.34 7 99.07C7 99.8 7.59 100.39 8.32 100.39H109.55C110.28 100.39 110.87 99.8 110.87 99.07C110.87 98.34 110.28 97.75 109.55 97.75H99.22V48.54C109.17 47.86 117.07 39.56 117.07 29.44ZM23.67 96.43V92.69H34.2V96.43C34.2 97.16 33.61 97.75 32.88 97.75H24.98C24.25 97.75 23.66 97.16 23.66 96.43H23.67ZM15.77 88.74V71.26C15.77 70.53 16.36 69.94 17.09 69.94H87.54C88.27 69.94 88.86 70.53 88.86 71.26V88.74C88.86 89.47 88.27 90.06 87.54 90.06H17.09C16.36 90.06 15.77 89.47 15.77 88.74ZM74.21 48.68L82.41 67.3H78.95L71.25 49.81C70.59 48.3 69.09 47.33 67.45 47.33H37.17C35.52 47.33 34.03 48.3 33.37 49.81L25.67 67.3H22.21L30.41 48.68C31.51 46.17 33.99 44.56 36.73 44.56H67.88C70.62 44.56 73.1 46.18 74.2 48.68H74.21ZM76.08 67.31H28.55L35.78 50.88C36.02 50.33 36.57 49.97 37.17 49.97H67.45C68.05 49.97 68.6 50.33 68.84 50.88L76.07 67.31H76.08ZM70.43 96.43V92.69H80.96V96.43C80.96 97.16 80.37 97.75 79.64 97.75H71.74C71.01 97.75 70.42 97.16 70.42 96.43H70.43ZM36.59 97.74C36.74 97.33 36.83 96.89 36.83 96.42V92.68H67.79V96.42C67.79 96.88 67.89 97.32 68.03 97.74H36.58H36.59ZM96.58 12.97C97.02 12.94 97.45 12.9 97.9 12.9C98.35 12.9 98.78 12.93 99.22 12.97C107.72 13.64 114.44 20.77 114.44 29.44C114.44 38.11 107.72 45.23 99.22 45.91C98.78 45.94 98.35 45.98 97.9 45.98C97.45 45.98 97.02 45.95 96.58 45.91C88.08 45.24 81.36 38.11 81.36 29.44C81.36 20.77 88.08 13.65 96.58 12.97Z" fill="#002169"/>
<path d="M93.5486 38.9699H95.6086C95.8786 38.9699 96.0986 38.7499 96.0986 38.4799V32.1099H100.069C103.799 32.1099 105.849 30.2299 105.849 26.8099C105.849 25.4899 105.429 24.3099 104.639 23.3799C103.669 22.2299 102.199 21.6299 100.369 21.6299H93.5486C93.2786 21.6299 93.0586 21.8499 93.0586 22.1199V38.4799C93.0586 38.7499 93.2786 38.9699 93.5486 38.9699ZM96.5786 24.3999H100.019C101.879 24.3999 102.819 25.2399 102.819 26.8999C102.819 28.5599 101.839 29.4499 99.8986 29.4499H96.0886V24.3999H96.5786Z" fill="#002169"/>
</svg>
